<svg width="0" height="0" class="hidden">
  <symbol fill="none" xmlns="http://www.w3.org/2000/svg" viewBox="0 0 20 20" id="phone">
    <path d="M19.75 13.748l-5.709-.66-2.73 2.73a16.299 16.299 0 01-7.14-7.14l2.742-2.74L6.252.25H.282c-.628 11.028 8.44 20.096 19.468 19.468v-5.97z" fill="#1E4B8F"></path>
  </symbol>
    <symbol fill="none" xmlns="http://www.w3.org/2000/svg" viewBox="0 0 17 23" id="location">
    <path d="M8.5.25A7.87 7.87 0 00.625 8.125C.625 14.031 8.5 22.75 8.5 22.75s7.875-8.719 7.875-14.625A7.87 7.87 0 008.5.25zm0 10.688a2.812 2.812 0 110-5.625 2.812 2.812 0 010 5.625z" fill="#1E4B8F"></path>
  </symbol>
    <symbol fill="none" xmlns="http://www.w3.org/2000/svg" viewBox="0 0 22 21" id="time">
    <path d="M10.76.083C5.017.083.344 4.756.344 10.5S5.017 20.917 10.76 20.917c5.744 0 10.417-4.673 10.417-10.417S16.504.083 10.76.083zm5.99 11.459H9.719V4.25h2.083v5.208h4.948v2.084z" fill="#1E4B8F"></path>
  </symbol>
    <symbol fill="none" xmlns="http://www.w3.org/2000/svg" viewBox="0 0 27 21" id="mail">
    <path d="M26.08.066H.92a.896.896 0 00-.895.895v1.8c0 .083.09.179.164.217l13.225 7.554a.223.223 0 00.225-.002l12.825-7.544c.072-.04.263-.147.335-.196.087-.06.176-.113.176-.219V.961a.896.896 0 00-.894-.895zm.784 5.41a.225.225 0 00-.226.002l-7.258 4.27a.224.224 0 00-.05.345l7.259 7.825a.222.222 0 00.321.005.224.224 0 00.066-.158V5.67a.224.224 0 00-.112-.194zm-9.575 5.706a.223.223 0 00-.277-.041l-2.91 1.711a1.136 1.136 0 01-1.122.008l-2.56-1.463a.223.223 0 00-.263.03L.434 20.445a.223.223 0 00.04.357.865.865 0 00.446.132h24.903a.222.222 0 00.205-.135.223.223 0 00-.041-.241l-8.698-9.376zm-9.272-.822a.223.223 0 00-.04-.358L.359 5.652a.223.223 0 00-.334.194v11.417a.223.223 0 00.376.164l7.616-7.067z" fill="#1E4B8F"></path>
  </symbol>
</svg>